<svg aria-hidden="true" style="position: absolute; width: 0; height: 0; overflow: hidden;" version="1.1" xmlns="http://www.w3.org/2000/svg" xmlns:xlink="http://www.w3.org/1999/xlink">
<defs>
<symbol id="icon-logo-dark" viewBox="0 0 126 32">
<path fill="#f6f6f6" style="fill: var(--color1, #f6f6f6)" d="M0 2.286l14.008 13.861 13.42 13.567v-27.429h-27.429z"></path>
<path fill="#f6f6f6" style="fill: var(--color1, #f6f6f6)" d="M3.82 5.91l10.237 10.139 9.649 9.845h-19.886v-19.984z"></path>
<path fill="#4f2ee8" style="fill: var(--color2, #4f2ee8)" d="M23.771 25.959l-10.237-10.139-9.649-9.845h19.886v19.984z"></path>
<path fill="#4f2ee8" style="fill: var(--color2, #4f2ee8)" d="M7.935 10.024l11.657 11.657h-11.657v-11.657z"></path>
<path fill="#f6f6f6" style="fill: var(--color1, #f6f6f6)" d="M7.935 10.024l11.657 11.657v-11.657h-11.657z"></path>
<path fill="#f3f3f3" style="fill: var(--color3, #f3f3f3)" d="M47.659 12.266c0-2.366-1.749-3.703-4.773-3.703h-6.315v14.709h6.665c3.045 0 4.999-1.461 4.999-4.299 0-2.201-1.317-3.333-2.859-3.6v-0.041c1.214-0.411 2.283-1.255 2.283-3.065zM39.019 14.653v-4.011h3.929c1.461 0 2.263 0.72 2.263 2.016s-0.658 1.995-2.407 1.995h-3.785zM39.019 16.483h4.299c1.543 0 2.469 0.843 2.469 2.345 0 1.378-0.638 2.366-2.736 2.366h-4.032v-4.711z"></path>
<path fill="#f3f3f3" style="fill: var(--color3, #f3f3f3)" d="M54.516 23.581c-3.291 0-5.287-2.283-5.287-5.554s1.995-5.554 5.287-5.554c3.291 0 5.287 2.283 5.287 5.554s-1.995 5.554-5.287 5.554zM54.516 21.811c2.057 0 3.127-1.625 3.127-3.785 0-2.181-1.070-3.785-3.127-3.785s-3.127 1.605-3.127 3.785c0 2.16 1.070 3.785 3.127 3.785z"></path>
<path fill="#f3f3f3" style="fill: var(--color3, #f3f3f3)" d="M66.027 23.581c-3.291 0-5.287-2.283-5.287-5.554s1.995-5.554 5.287-5.554c3.291 0 5.287 2.283 5.287 5.554s-1.995 5.554-5.287 5.554zM66.027 21.811c2.057 0 3.127-1.625 3.127-3.785 0-2.181-1.070-3.785-3.127-3.785s-3.127 1.605-3.127 3.785c0 2.16 1.070 3.785 3.127 3.785z"></path>
<path fill="#f3f3f3" style="fill: var(--color3, #f3f3f3)" d="M72.807 8.563v14.709h2.16v-3.806l1.461-1.378 3.312 5.184h2.592l-4.423-6.603 3.991-3.909h-2.654l-4.279 4.217v-8.414h-2.16z"></path>
<path fill="#f3f3f3" style="fill: var(--color3, #f3f3f3)" d="M87.539 16.915c-1.522-0.35-2.695-0.432-2.695-1.502 0-0.741 0.699-1.234 1.995-1.234 1.687 0 2.098 0.843 2.242 1.666h2.098c-0.144-1.831-1.502-3.374-4.361-3.374-2.633 0-4.155 1.378-4.155 3.106 0 2.386 2.263 2.715 3.929 3.106 1.543 0.37 2.798 0.473 2.798 1.79 0 0.658-0.638 1.399-2.139 1.399-2.222 0-2.715-0.967-2.818-2.098h-2.098c0.103 2.222 1.563 3.806 4.958 3.806 2.551 0 4.279-1.255 4.279-3.271 0-2.51-2.098-2.942-4.032-3.394z"></path>
<path fill="#f3f3f3" style="fill: var(--color3, #f3f3f3)" d="M98.633 12.472c-1.769 0-2.859 0.823-3.415 1.646h-0.041v-5.554h-2.16v14.709h2.16v-6.398c0-1.563 1.131-2.571 2.715-2.571 1.502 0 2.098 0.905 2.098 2.325v6.645h2.181v-7.262c0-2.407-1.543-3.538-3.538-3.538z"></path>
<path fill="#f3f3f3" style="fill: var(--color3, #f3f3f3)" d="M108.796 21.811c-1.913 0-3.045-1.461-3.045-3.23h8.064c0-3.744-1.666-6.11-5.061-6.11-3.168 0-5.163 2.139-5.163 5.554 0 3.291 1.995 5.554 5.266 5.554 2.695 0 4.258-1.522 4.793-3.518h-2.16c-0.185 0.638-0.905 1.749-2.695 1.749zM108.754 14.179c1.749 0 2.901 1.173 2.901 2.798h-5.904c0-1.625 1.255-2.798 3.003-2.798z"></path>
<path fill="#f3f3f3" style="fill: var(--color3, #f3f3f3)" d="M115.337 8.563v14.709h2.181v-14.709h-2.181z"></path>
<path fill="#f3f3f3" style="fill: var(--color3, #f3f3f3)" d="M124.573 10.333v-1.769c-0.432-0.082-0.905-0.144-1.44-0.144-1.728 0-2.674 0.782-2.674 3.003v1.337h-1.502v1.769h1.502v8.743h2.181v-8.743h1.934v-1.769h-1.934v-1.152c0-1.193 0.535-1.337 1.934-1.275z"></path>
</symbol>
<symbol id="icon-logo-light" viewBox="0 0 126 32">
<path fill="#f6f6f6" style="fill: var(--color1, #f6f6f6)" d="M0 2.286l14.008 13.861 13.42 13.567v-27.429h-27.429z"></path>
<path fill="#f6f6f6" style="fill: var(--color1, #f6f6f6)" d="M3.82 5.91l10.237 10.139 9.649 9.845h-19.886v-19.984z"></path>
<path fill="#4f2ee8" style="fill: var(--color2, #4f2ee8)" d="M23.771 25.959l-10.237-10.139-9.649-9.845h19.886v19.984z"></path>
<path fill="#4f2ee8" style="fill: var(--color2, #4f2ee8)" d="M7.935 10.024l11.657 11.657h-11.657v-11.657z"></path>
<path fill="#f6f6f6" style="fill: var(--color1, #f6f6f6)" d="M7.935 10.024l11.657 11.657v-11.657h-11.657z"></path>
<path fill="#000" style="fill: var(--color4, #000)" d="M47.659 12.266c0-2.366-1.749-3.703-4.773-3.703h-6.315v14.709h6.665c3.045 0 4.999-1.461 4.999-4.299 0-2.201-1.317-3.333-2.859-3.6v-0.041c1.214-0.411 2.283-1.255 2.283-3.065zM39.019 14.653v-4.011h3.929c1.461 0 2.263 0.72 2.263 2.016s-0.658 1.995-2.407 1.995h-3.785zM39.019 16.483h4.299c1.543 0 2.469 0.843 2.469 2.345 0 1.378-0.638 2.366-2.736 2.366h-4.032v-4.711z"></path>
<path fill="#000" style="fill: var(--color4, #000)" d="M54.516 23.581c-3.291 0-5.287-2.283-5.287-5.554s1.995-5.554 5.287-5.554c3.291 0 5.287 2.283 5.287 5.554s-1.995 5.554-5.287 5.554zM54.516 21.811c2.057 0 3.127-1.625 3.127-3.785 0-2.181-1.070-3.785-3.127-3.785s-3.127 1.605-3.127 3.785c0 2.16 1.070 3.785 3.127 3.785z"></path>
<path fill="#000" style="fill: var(--color4, #000)" d="M66.027 23.581c-3.291 0-5.287-2.283-5.287-5.554s1.995-5.554 5.287-5.554c3.291 0 5.287 2.283 5.287 5.554s-1.995 5.554-5.287 5.554zM66.027 21.811c2.057 0 3.127-1.625 3.127-3.785 0-2.181-1.070-3.785-3.127-3.785s-3.127 1.605-3.127 3.785c0 2.16 1.070 3.785 3.127 3.785z"></path>
<path fill="#000" style="fill: var(--color4, #000)" d="M72.807 8.563v14.709h2.16v-3.806l1.461-1.378 3.312 5.184h2.592l-4.423-6.603 3.991-3.909h-2.654l-4.279 4.217v-8.414h-2.16z"></path>
<path fill="#000" style="fill: var(--color4, #000)" d="M87.539 16.915c-1.522-0.35-2.695-0.432-2.695-1.502 0-0.741 0.699-1.234 1.995-1.234 1.687 0 2.098 0.843 2.242 1.666h2.098c-0.144-1.831-1.502-3.374-4.361-3.374-2.633 0-4.155 1.378-4.155 3.106 0 2.386 2.263 2.715 3.929 3.106 1.543 0.37 2.798 0.473 2.798 1.79 0 0.658-0.638 1.399-2.139 1.399-2.222 0-2.715-0.967-2.818-2.098h-2.098c0.103 2.222 1.563 3.806 4.958 3.806 2.551 0 4.279-1.255 4.279-3.271 0-2.51-2.098-2.942-4.032-3.394z"></path>
<path fill="#000" style="fill: var(--color4, #000)" d="M98.633 12.472c-1.769 0-2.859 0.823-3.415 1.646h-0.041v-5.554h-2.16v14.709h2.16v-6.398c0-1.563 1.131-2.571 2.715-2.571 1.502 0 2.098 0.905 2.098 2.325v6.645h2.181v-7.262c0-2.407-1.543-3.538-3.538-3.538z"></path>
<path fill="#000" style="fill: var(--color4, #000)" d="M108.796 21.811c-1.913 0-3.045-1.461-3.045-3.23h8.064c0-3.744-1.666-6.11-5.061-6.11-3.168 0-5.163 2.139-5.163 5.554 0 3.291 1.995 5.554 5.266 5.554 2.695 0 4.258-1.522 4.793-3.518h-2.16c-0.185 0.638-0.905 1.749-2.695 1.749zM108.754 14.179c1.749 0 2.901 1.173 2.901 2.798h-5.904c0-1.625 1.255-2.798 3.003-2.798z"></path>
<path fill="#000" style="fill: var(--color4, #000)" d="M115.337 8.563v14.709h2.181v-14.709h-2.181z"></path>
<path fill="#000" style="fill: var(--color4, #000)" d="M124.573 10.333v-1.769c-0.432-0.082-0.905-0.144-1.44-0.144-1.728 0-2.674 0.782-2.674 3.003v1.337h-1.502v1.769h1.502v8.743h2.181v-8.743h1.934v-1.769h-1.934v-1.152c0-1.193 0.535-1.337 1.934-1.275z"></path>
</symbol>
<symbol id="icon-align-left-converted" viewBox="0 0 32 32">
<path d="M3.498 6.936c-0.218 0.065-0.503 0.358-0.566 0.582-0.032 0.145-0.050 0.312-0.050 0.482s0.018 0.337 0.053 0.498l-0.003-0.016c0.066 0.235 0.349 0.515 0.591 0.585 0.25 0.072 24.699 0.072 24.959 0 0.235-0.066 0.515-0.349 0.585-0.591 0.032-0.143 0.051-0.308 0.051-0.477s-0.018-0.333-0.053-0.492l0.003 0.015c-0.070-0.242-0.35-0.525-0.585-0.591-0.239-0.066-24.762-0.064-24.984 0.003zM3.498 12.269c-0.218 0.065-0.503 0.359-0.566 0.583-0.032 0.145-0.050 0.312-0.050 0.482s0.018 0.337 0.053 0.498l-0.003-0.016c0.066 0.235 0.349 0.515 0.591 0.585 0.25 0.072 19.367 0.071 19.625-0.001 0.235-0.065 0.517-0.349 0.585-0.59 0.032-0.143 0.051-0.308 0.051-0.477s-0.018-0.334-0.053-0.492l0.003 0.015c-0.069-0.241-0.35-0.525-0.585-0.59-0.238-0.066-19.429-0.064-19.65 0.002zM3.498 17.602c-0.218 0.065-0.503 0.359-0.566 0.582-0.032 0.145-0.050 0.312-0.050 0.482s0.018 0.337 0.053 0.498l-0.003-0.016c0.066 0.235 0.349 0.517 0.591 0.585 0.25 0.072 24.699 0.072 24.959 0 0.235-0.065 0.515-0.349 0.585-0.59 0.067-0.235 0.067-0.72 0-0.954-0.070-0.241-0.35-0.525-0.585-0.59-0.239-0.066-24.762-0.064-24.984 0.002zM3.498 22.936c-0.218 0.065-0.503 0.358-0.566 0.582-0.032 0.145-0.050 0.312-0.050 0.482s0.018 0.337 0.053 0.498l-0.003-0.016c0.066 0.235 0.349 0.515 0.591 0.585 0.25 0.072 19.367 0.071 19.625 0 0.235-0.066 0.517-0.349 0.585-0.591 0.032-0.143 0.051-0.308 0.051-0.477s-0.018-0.333-0.053-0.492l0.003 0.015c-0.069-0.242-0.35-0.525-0.585-0.591-0.238-0.066-19.429-0.063-19.65 0.003z"></path>
</symbol>
<symbol id="icon-arr-right" viewBox="0 0 32 32">
<path stroke-linejoin="round" stroke-linecap="round" stroke-miterlimit="4" stroke-width="3.2" d="M5.333 16h21.333M26.667 16l-8-8M26.667 16l-8 8"></path>
</symbol>
<symbol id="icon-arrow-down" viewBox="0 0 28 32">
<path d="M5.952 12.028c0.015 0.042 6.209 7.062 7.137 8.087 0.476 0.527 0.666 0.641 1.065 0.641s0.588-0.114 1.065-0.641c0.928-1.025 7.122-8.046 7.137-8.087 0.010-0.028-3.055-0.044-8.202-0.044s-8.212 0.016-8.202 0.044z"></path>
</symbol>
<symbol id="icon-arrow-up" viewBox="0 0 32 32">
<path d="M16.187 8.061c-0.185 0.049-0.977 0.821-6.060 5.904-4.615 4.617-5.871 5.901-5.964 6.103-0.096 0.208-0.152 0.452-0.152 0.709 0 0.165 0.023 0.326 0.067 0.477l-0.003-0.012c0.065 0.225 0.161 0.381 0.379 0.616 0.379 0.409 0.712 0.563 1.227 0.563 0.712 0 0.375 0.299 5.921-5.248l5.011-5.012 5.015 5.008c3.603 3.599 5.081 5.041 5.253 5.128 0.284 0.143 0.836 0.196 1.149 0.111 0.755-0.204 1.32-1.039 1.228-1.813-0.073-0.625 0.163-0.369-6.020-6.557-3.551-3.555-5.852-5.819-5.983-5.887-0.248-0.129-0.756-0.171-1.068-0.088z"></path>
</symbol>
<symbol id="icon-bookicon88x80" viewBox="0 0 35 32">
<path d="M24.743 4.147l-3.975 4.083v15.546l0.234-0.198c0.129-0.109 1.936-1.769 4.016-3.689l3.782-3.491 0.003-8.169c0.001-4.493-0.017-8.168-0.042-8.167s-1.832 1.84-4.018 4.086zM7.509 5.79c-0.606 0.045-2.014 0.27-2.672 0.428-1.119 0.276-2.082 0.611-3.004 1.024l0.111-0.044c-1.291 0.571-1.534 0.746-1.78 1.28l-0.135 0.294v20.592l0.125 0.264c0.264 0.556 0.818 0.934 1.462 0.938h0.001c0.297 0 0.436-0.039 0.851-0.24 2.4-1.167 4.105-1.598 6.333-1.6 1.578-0.002 2.912 0.23 4.401 0.765 1.226 0.44 2.999 1.414 4.058 2.229l0.341 0.262 0.341-0.262c1.059-0.815 2.832-1.789 4.058-2.229 1.489-0.534 2.823-0.766 4.401-0.765 1.241 0.001 2.008 0.098 3.202 0.404 0.968 0.248 1.514 0.454 2.68 1.010 0.841 0.402 0.957 0.442 1.29 0.443 0.635 0.003 1.156-0.318 1.434-0.884l0.164-0.335v-20.592l-0.135-0.294c-0.197-0.428-0.383-0.593-1.038-0.923-0.632-0.319-1.808-0.808-1.942-0.808-0.070 0-0.082 1.438-0.082 9.826 0 5.405-0.020 9.827-0.044 9.827s-0.268-0.076-0.542-0.169c-1.203-0.409-2.623-0.678-4.090-0.774-3.082-0.202-6.418 0.618-9.198 2.261-0.247 0.146-0.46 0.266-0.474 0.266s-0.031-4.468-0.039-9.929l-0.015-9.93-1.056-0.528c-2.039-1.019-4.022-1.584-6.278-1.789-0.597-0.054-2.112-0.064-2.728-0.018zM11 9.206c0.923 0.159 1.666 0.352 2.493 0.65 0.371 0.134 0.721 0.258 0.778 0.275 0.097 0.030 0.102 0.47 0.102 8.15 0 4.465-0.011 8.118-0.024 8.118s-0.27-0.081-0.572-0.18c-3.186-1.047-6.863-1.043-9.964 0.011-0.274 0.093-0.518 0.169-0.542 0.169s-0.044-3.653-0.044-8.118v-8.118l0.57-0.218c1.047-0.401 2.394-0.723 3.566-0.852 0.801-0.089 2.836-0.026 3.637 0.111z"></path>
</symbol>
<symbol id="icon-cart" viewBox="0 0 32 32">
<path d="M25.334 9.333h-4v-1.333c0-1.415-0.562-2.771-1.562-3.771s-2.357-1.562-3.771-1.562c-1.415 0-2.771 0.562-3.771 1.562s-1.562 2.357-1.562 3.771v1.333h-4c-0.354 0-0.693 0.14-0.943 0.391s-0.391 0.589-0.391 0.943v14.667c0 1.061 0.421 2.078 1.172 2.828s1.768 1.172 2.828 1.172h13.333c1.061 0 2.078-0.421 2.828-1.172s1.172-1.768 1.172-2.828v-14.667c0-0.354-0.14-0.693-0.391-0.943s-0.589-0.391-0.943-0.391zM13.334 8c0-0.707 0.281-1.386 0.781-1.886s1.178-0.781 1.886-0.781c0.707 0 1.385 0.281 1.886 0.781s0.781 1.178 0.781 1.886v1.333h-5.333v-1.333zM24 25.333c0 0.354-0.14 0.693-0.391 0.943s-0.589 0.391-0.943 0.391h-13.333c-0.354 0-0.693-0.14-0.943-0.391s-0.391-0.589-0.391-0.943v-13.333h2.667v1.333c0 0.354 0.14 0.693 0.391 0.943s0.589 0.391 0.943 0.391c0.354 0 0.693-0.14 0.943-0.391s0.39-0.589 0.39-0.943v-1.333h5.333v1.333c0 0.354 0.14 0.693 0.391 0.943s0.589 0.391 0.943 0.391c0.354 0 0.693-0.14 0.943-0.391s0.391-0.589 0.391-0.943v-1.333h2.667v13.333z"></path>
</symbol>
<symbol id="icon-darkswitcher" viewBox="0 0 52 32">
<path d="M10.821 2.402c-2.891 0.361-5.175 1.401-7.093 3.227-1.765 1.677-3.018 3.878-3.512 6.352l-0.013 0.077c-0.209 1.047-0.209 3.258 0 4.305 0.494 2.487 1.649 4.616 3.435 6.338 1.73 1.669 3.678 2.687 6.074 3.174 0.711 0.146 1.633 0.155 14.016 0.155 12.453 0 13.299-0.009 13.993-0.156 1.152-0.245 1.887-0.482 2.775-0.897 2.437-1.138 4.455-3.093 5.638-5.465 0.852-1.708 1.234-3.349 1.234-5.312 0.002-5.619-3.823-10.325-9.432-11.605l-0.866-0.197-12.994-0.014c-7.145-0.007-13.111 0.001-13.254 0.019zM38.175 3.899c1.122 0.286 2.287 0.799 3.285 1.447 0.909 0.591 2.381 2.080 3.004 3.039 3.493 5.376 1.496 12.587-4.263 15.39-1.71 0.833-3.294 1.153-5.211 1.052-2.81-0.146-5.192-1.244-7.159-3.302-1.94-2.031-2.892-4.44-2.892-7.315 0-1.843 0.315-3.211 1.105-4.78 1.538-3.063 4.436-5.172 7.896-5.747 1.158-0.192 3.001-0.098 4.235 0.216z"></path>
</symbol>
<symbol id="icon-fi-rr-angle-small-left" viewBox="0 0 32 32">
<path d="M7.559 11.433c-0.52 0.192-0.885 0.684-0.885 1.261 0 0.155 0.026 0.303 0.074 0.441l-0.003-0.009c0.087 0.272 0.269 0.464 3.247 3.452 1.735 1.74 3.297 3.279 3.473 3.42 0.42 0.337 0.921 0.605 1.414 0.759 0.579 0.179 1.661 0.179 2.24 0 0.493-0.154 0.993-0.422 1.414-0.759 0.176-0.141 1.738-1.68 3.473-3.42 2.977-2.988 3.159-3.18 3.247-3.452 0.046-0.129 0.073-0.279 0.073-0.434 0-0.731-0.593-1.324-1.324-1.324-0.051 0-0.101 0.003-0.151 0.008l0.006-0.001c-0.167 0.019-0.32 0.060-0.463 0.122l0.010-0.004c-0.099 0.051-1.644 1.551-3.433 3.337-2.25 2.244-3.315 3.27-3.452 3.327-0.255 0.106-0.79 0.106-1.044 0-0.137-0.057-1.201-1.082-3.452-3.327-1.789-1.786-3.335-3.287-3.437-3.338-0.246-0.124-0.775-0.154-1.030-0.060z"></path>
</symbol>
<symbol id="icon-lightswitcher" viewBox="0 0 50 32">
<path d="M12.361 2.528c-3.749 0.633-6.981 2.974-8.661 6.273-0.897 1.761-1.308 3.499-1.303 5.51 0.004 1.856 0.344 3.361 1.124 4.99 1.702 3.552 4.766 5.871 8.779 6.644 0.715 0.137 1.647 0.147 13.709 0.147 12.229 0 12.991-0.008 13.813-0.154 2.394-0.422 4.532-1.486 6.229-3.102 1.779-1.694 2.937-3.768 3.492-6.253 0.161-0.725 0.191-1.097 0.191-2.355 0-1.655-0.141-2.529-0.635-3.931-1.305-3.587-4.178-6.324-7.769-7.415l-0.085-0.022c-1.608-0.468-1.109-0.454-15.237-0.446-10.095 0.007-13.165 0.032-13.647 0.114zM16.601 3.849c3.998 0.914 7.076 4.002 8.020 8.049 0.186 0.8 0.215 1.103 0.213 2.33-0.001 1.505-0.097 2.155-0.495 3.36-1.186 3.584-4.231 6.29-7.995 7.102-0.99 0.213-3.241 0.213-4.231 0-2.132-0.46-3.864-1.403-5.403-2.943-1.217-1.217-1.992-2.436-2.542-3.993-0.441-1.25-0.553-1.966-0.553-3.526s0.113-2.276 0.553-3.526c1.336-3.788 4.748-6.548 8.716-7.049 0.979-0.123 2.715-0.032 3.718 0.197z"></path>
</symbol>
<symbol id="icon-lock-02" viewBox="0 0 32 32">
<path d="M14.751 2.963c-2.995 0.511-5.381 2.662-6.226 5.479l-0.014 0.056c-0.257 0.886-0.297 1.331-0.297 3.257v1.783l-0.36 0.034c-1.35 0.129-2.006 0.345-2.875 0.944-0.793 0.547-1.498 1.496-1.797 2.417-0.256 0.792-0.275 1.098-0.275 4.4 0 3.301 0.019 3.607 0.275 4.4 0.304 0.939 1.032 1.904 1.858 2.462 0.658 0.445 1.16 0.647 2 0.803 0.472 0.088 1.093 0.095 8.96 0.095s8.488-0.007 8.96-0.095c0.84-0.157 1.342-0.359 2-0.803 0.826-0.558 1.554-1.522 1.858-2.462 0.256-0.793 0.275-1.099 0.275-4.4 0-3.302-0.019-3.608-0.275-4.4-0.304-0.941-1.032-1.904-1.858-2.463-0.824-0.557-1.499-0.773-2.814-0.898l-0.36-0.034v-1.783c0-1.926-0.040-2.371-0.297-3.257-0.859-2.891-3.271-5.051-6.245-5.531l-0.045-0.006c-0.611-0.098-1.855-0.097-2.448 0.002zM17.12 5.262c1.75 0.345 3.32 1.665 3.997 3.36 0.363 0.909 0.399 1.194 0.401 3.165l0.002 1.734h-11.040l0.002-1.734c0.002-1.97 0.038-2.256 0.401-3.165 0.871-2.181 3.074-3.599 5.383-3.465 0.25 0.015 0.634 0.062 0.854 0.105zM23.605 15.838c0.511 0.027 1.061 0.087 1.253 0.136 0.855 0.221 1.616 0.982 1.835 1.835 0.247 0.96 0.247 6.089 0 7.048-0.219 0.854-0.981 1.615-1.835 1.835-0.601 0.155-2.011 0.185-8.857 0.185s-8.256-0.030-8.857-0.185c-0.855-0.221-1.616-0.982-1.835-1.835-0.248-0.96-0.247-6.090 0-7.048 0.221-0.856 0.979-1.614 1.839-1.838 0.191-0.049 0.683-0.107 1.094-0.129 1.091-0.057 14.294-0.062 15.365-0.005z"></path>
</symbol>
<symbol id="icon-mail-02" viewBox="0 0 32 32">
<path d="M6.4 4.248c-0.475 0.049-1.258 0.195-1.51 0.282-0.931 0.32-1.833 0.997-2.374 1.782-0.501 0.726-0.687 1.19-0.861 2.142-0.104 0.568-0.107 0.799-0.106 7.36 0 6.487 0.016 7.271 0.161 8.026 0.262 1.261 0.984 2.319 1.98 3.012l0.016 0.010c0.658 0.445 1.16 0.646 2 0.802 0.474 0.089 1.15 0.095 10.294 0.095s9.819-0.006 10.294-0.095c0.869-0.162 1.357-0.362 2.061-0.848 0.981-0.701 1.681-1.741 1.93-2.946l0.005-0.031c0.145-0.755 0.161-1.539 0.161-8.026 0.001-6.561-0.002-6.792-0.106-7.36-0.127-0.694-0.222-1.007-0.439-1.44-0.378-0.759-0.918-1.394-1.551-1.831-0.682-0.47-1.173-0.677-2.008-0.845-0.417-0.085-1.216-0.093-10.106-0.101-5.31-0.005-9.737 0-9.84 0.010zM24.937 6.504c0.512 0.027 1.062 0.087 1.254 0.137 0.845 0.218 1.614 0.981 1.83 1.811 0.065 0.251 0.069 0.334 0.018 0.383-0.198 0.19-11.107 7.776-11.387 7.919-0.265 0.135-0.401 0.17-0.651 0.17s-0.386-0.035-0.651-0.17c-0.28-0.143-11.19-7.729-11.387-7.919-0.050-0.049-0.047-0.131 0.018-0.383 0.217-0.834 0.984-1.593 1.834-1.814 0.191-0.050 0.682-0.109 1.093-0.13 1.091-0.057 16.959-0.061 18.031-0.005zM7.097 13.826c1.77 1.24 3.216 2.273 3.211 2.298-0.005 0.024-1.456 1.351-3.225 2.949-3.099 2.799-3.218 2.899-3.25 2.755-0.051-0.229-0.053-10.255-0.001-10.255 0.025 0 1.495 1.014 3.265 2.253zM28.207 16.626c-0.003 2.779-0.022 5.121-0.040 5.202-0.032 0.144-0.151 0.043-3.25-2.755-1.769-1.598-3.221-2.925-3.225-2.949-0.008-0.048 6.4-4.551 6.477-4.551 0.025 0 0.042 2.273 0.039 5.053zM13.238 18.115c1.325 0.896 1.801 1.082 2.762 1.082 0.962 0 1.438-0.186 2.767-1.085 0.507-0.344 0.945-0.618 0.971-0.609s1.789 1.587 3.914 3.507l3.867 3.491-0.2 0.206c-0.306 0.3-0.686 0.525-1.111 0.646l-0.018 0.004c-0.615 0.159-2.048 0.185-10.191 0.185s-9.576-0.026-10.191-0.185c-0.443-0.125-0.823-0.35-1.13-0.651l0 0-0.2-0.206 3.88-3.504c2.134-1.928 3.897-3.505 3.919-3.505s0.453 0.28 0.959 0.622z"></path>
</symbol>
<symbol id="icon-switcher-circle" viewBox="0 0 32 32">
<path d="M13.68 2.512c-3.55 0.366-6.614 2.341-8.494 5.473-1.006 1.676-1.585 4.014-1.487 5.988 0.119 2.377 0.864 4.43 2.29 6.319 0.421 0.559 1.489 1.625 2.063 2.058 1.436 1.098 3.182 1.864 5.085 2.152l0.062 0.008c0.789 0.119 2.354 0.119 3.147 0 4.478-0.674 8.071-3.924 9.17-8.292 0.205-0.803 0.323-1.725 0.323-2.674 0-0.946-0.117-1.864-0.337-2.741l0.016 0.077c-0.871-3.397-3.217-6.117-6.297-7.482l-0.071-0.028c-1.727-0.741-3.662-1.045-5.472-0.858zM15.964 4.4c4.026 0.528 7.248 3.637 7.903 7.627 0.848 5.161-2.741 9.984-7.936 10.663-1.402 0.183-2.677 0.058-4.064-0.404-3.202-1.081-5.582-3.787-6.18-7.111l-0.008-0.056c-0.121-0.692-0.159-1.867-0.082-2.533 0.185-1.605 0.656-2.89 1.556-4.245 0.534-0.804 1.614-1.883 2.416-2.416 1.961-1.302 4.139-1.822 6.396-1.526z"></path>
</symbol>
<symbol id="icon-switcher-rectangle" viewBox="0 0 64 32">
<path d="M13.982 0.115c-2.392 0.314-5.086 1.341-6.995 2.669-3.478 2.416-5.749 5.843-6.691 10.094-0.334 1.509-0.334 4.734 0 6.243 1.446 6.525 6.114 11.174 12.632 12.587l1.099 0.238h35.946l1.099-0.238c6.515-1.411 11.192-6.070 12.627-12.579 0.336-1.522 0.336-4.738 0-6.259-1.107-5.021-4.144-8.968-8.624-11.206-1.132-0.566-2.449-1.038-3.827-1.349l-0.118-0.022-1.050-0.238-17.707-0.014c-9.738-0.008-18.014 0.026-18.39 0.075z"></path>
</symbol>
<symbol id="icon-ukraine-trizub" viewBox="0 0 20 32">
<path d="M9.795 0.26c-0.485 0.602-0.83 1.336-0.975 2.14l-0.004 0.029c-0.092 0.525-0.057 1.623 0.134 4.254 0.154 2.102 0.186 2.696 0.206 3.817 0.013 0.736 0.006 1.293-0.020 1.633-0.15 1.971-0.678 3.939-1.622 6.052-0.232 0.521-0.901 1.85-0.957 1.903-0.030 0.028-0.186 0.005-0.624-0.093-0.957-0.215-1.346-0.459-1.622-1.016-0.125-0.253-0.128-0.267-0.128-0.627 0-0.352 0.006-0.38 0.114-0.602 0.16-0.328 0.512-0.677 0.841-0.832 0.282-0.134 0.586-0.186 0.879-0.151 0.11 0.013 0.204 0.021 0.208 0.017s-0.17-1.386-0.39-3.071c0.194 2.030 0.029 0.786-0.131-0.459l-0.335-3.177c-0.084-0.802-0.26-1.536-0.519-2.23l0.020 0.062c-0.728-1.977-2.002-3.61-3.638-4.762l-0.032-0.021c-0.314-0.217-1.12-0.693-1.173-0.693-0.015 0-0.027 5.198-0.027 11.55v11.55h5.59l0.059 0.275c0.081 0.377 0.289 1.018 0.47 1.449 0.569 1.358 1.534 2.587 2.798 3.565 0.486 0.376 0.803 0.695 0.954 0.964 0.056 0.099 0.112 0.18 0.124 0.18 0.051-0.053 0.096-0.114 0.131-0.181l0.002-0.004c0.169-0.28 0.446-0.558 0.835-0.839 0.567-0.41 0.83-0.631 1.211-1.017 1.041-1.053 1.811-2.477 2.169-4.011l0.077-0.331 5.58-0.017v-23.134l-0.17 0.087c-0.498 0.266-0.922 0.537-1.323 0.837l0.026-0.019c-0.619 0.493-1.165 1.027-1.653 1.612l-0.015 0.018c-1.057 1.333-1.817 2.949-2.152 4.715l-0.011 0.068c-0.078 0.418-0.941 7.022-0.921 7.042 0.007 0.007 0.104 0 0.214-0.017 0.829-0.125 1.702 0.521 1.847 1.368 0.075 0.437-0.095 0.912-0.455 1.271-0.326 0.325-0.562 0.421-1.545 0.632l-0.375 0.080-0.248-0.471c-1.104-2.098-1.844-4.178-2.167-6.088-0.157-0.931-0.196-1.443-0.195-2.534 0.002-1.134 0.027-1.639 0.193-3.833 0.173-2.286 0.191-2.635 0.195-3.667 0.004-1.052-0.010-1.163-0.231-1.828-0.213-0.611-0.52-1.138-0.909-1.594l-0.099-0.119-0.211 0.268zM2.117 6.283c0.718 0.937 1.246 2.059 1.507 3.28l0.010 0.054c0.059 0.289 0.733 5.619 0.733 5.8 0 0.047-0.082 0.121-0.275 0.249-0.638 0.422-1.218 1.141-1.393 1.726l-0.043 0.141h-0.956v-11.743l0.071 0.063c0.039 0.035 0.194 0.229 0.346 0.43zM18.333 11.684v5.884l-0.938-0.018-0.093-0.24c-0.255-0.655-0.727-1.225-1.363-1.646-0.208-0.137-0.272-0.198-0.272-0.256 0-0.132 0.666-5.513 0.719-5.808 0.201-1.123 0.723-2.271 1.492-3.282 0.202-0.265 0.418-0.518 0.443-0.518 0.007 0 0.012 2.648 0.012 5.884zM10.459 17.833c0.281 0.689 0.67 1.492 1.093 2.256 0.137 0.245 0.248 0.454 0.248 0.462 0 0.009-0.023 0.016-0.051 0.016-0.122 0-0.607 0.22-0.883 0.402-0.215 0.147-0.402 0.298-0.578 0.462l0.003-0.003-0.274 0.263-0.25-0.233c-0.444-0.413-0.916-0.711-1.342-0.844-0.105-0.033-0.192-0.072-0.192-0.085s0.12-0.243 0.266-0.509c0.61-1.113 1.042-2.067 1.387-3.066l0.125-0.362 0.173 0.495c0.095 0.272 0.219 0.608 0.275 0.745zM2.667 19.208c0.002 0.101 0.231 0.597 0.38 0.821 0.523 0.786 1.252 1.263 2.303 1.505l0.354 0.085c0.048 0.014 0.046 0.052-0.023 0.392-0.116 0.57-0.18 1.047-0.204 1.507l-0.021 0.415h-3.756v-4.766h0.483c0.364 0 0.484 0.010 0.484 0.041zM18.333 21.55v2.383h-3.756l-0.022-0.405c-0.041-0.593-0.119-1.139-0.233-1.672l0.014 0.077c-0.023-0.084-0.041-0.184-0.051-0.286l-0.001-0.008c0.006-0.006 0.21-0.060 0.455-0.12 0.555-0.137 0.883-0.273 1.267-0.525 0.615-0.404 1.147-1.079 1.329-1.686l0.042-0.141h0.956v2.383zM7.776 22.068c0.736 0.225 1.391 1.043 1.391 1.739v0.126h-2.067v-0.275c0-0.327 0.067-0.803 0.185-1.315l0.086-0.374 0.106 0.020c0.059 0.011 0.193 0.047 0.299 0.079zM12.73 22.275c0.122 0.515 0.169 0.823 0.192 1.25l0.021 0.408h-2.076v-0.115c0-0.2 0.069-0.46 0.191-0.718 0.148-0.313 0.552-0.73 0.865-0.894 0.162-0.085 0.585-0.226 0.714-0.237 0.010-0.002 0.052 0.136 0.093 0.306zM9.167 27.252v1.685l-0.17-0.193c-0.456-0.522-0.853-1.115-1.167-1.755l-0.021-0.048c-0.173-0.364-0.474-1.198-0.475-1.316-0.001-0.054 0.065-0.058 0.916-0.058h0.917v1.685zM12.7 25.596c0 0.083-0.188 0.659-0.32 0.985-0.309 0.754-0.846 1.614-1.357 2.169l-0.154 0.167-0.002-3.35h0.916c0.512 0 0.917 0.013 0.917 0.029z"></path>
</symbol>
<symbol id="icon-user-fill" viewBox="0 0 32 32">
<path d="M14.934 1.41c-1.831 0.254-3.43 1.095-4.635 2.325l-0.001 0.001c-1.076 1.083-1.794 2.43-2.149 4.037-0.167 0.755-0.167 2.366 0 3.121 0.364 1.639 1.075 2.959 2.203 4.088 1.132 1.13 2.452 1.843 4.084 2.201 0.711 0.157 2.317 0.172 3.005 0.029 1.671-0.349 3.069-1.090 4.209-2.23s1.88-2.536 2.228-4.207c0.143-0.687 0.128-2.294-0.029-3.005-0.441-2.009-1.485-3.655-3.080-4.854-0.583-0.438-1.799-1.053-2.447-1.236-1.081-0.307-2.4-0.413-3.387-0.269zM15.227 18.698l-0.667 0.081c-1.021 0.118-2.321 0.515-3.33 1.021-1.704 0.875-3.104 2.128-4.127 3.654l-0.025 0.039c-0.463 0.72-0.87 1.549-1.18 2.423l-0.026 0.085c-0.317 0.968-0.537 2.216-0.539 3.027v0.307h21.349l-0.035-0.606c-0.082-1.493-0.469-2.879-1.1-4.119l0.027 0.059c-1.527-3.096-4.431-5.312-7.891-5.86l-0.060-0.008c-0.517-0.081-2.078-0.147-2.397-0.101z"></path>
</symbol>
<symbol id="icon-x-close" viewBox="0 0 32 32">
<path d="M7.626 6.245c-0.291 0.085-0.749 0.427-1.029 0.774-0.432 0.533-0.509 1.054-0.24 1.616 0.088 0.184 1.011 1.143 3.665 3.806l3.547 3.56-3.551 3.56c-3.907 3.918-3.806 3.799-3.805 4.44 0 0.449 0.157 0.77 0.586 1.199 0.429 0.43 0.75 0.586 1.199 0.586 0.634 0 0.526 0.093 4.44-3.808l3.56-3.547 3.56 3.547c3.914 3.901 3.806 3.808 4.44 3.808 0.449 0 0.77-0.157 1.199-0.586 0.43-0.429 0.586-0.75 0.586-1.199 0-0.634 0.093-0.526-3.808-4.44l-3.547-3.56 3.547-3.56c3.901-3.914 3.808-3.806 3.808-4.44 0-0.449-0.157-0.77-0.586-1.199-0.429-0.43-0.75-0.586-1.199-0.586-0.634 0-0.526-0.093-4.44 3.808l-3.56 3.547-3.56-3.547c-2.721-2.712-3.619-3.576-3.814-3.67-0.29-0.138-0.728-0.186-1-0.109z"></path>
</symbol>
</defs>
</svg>
